<?xml version="1.0" encoding="utf-8"?>
<!-- Generator: Adobe Illustrator 26.5.0, SVG Export Plug-In . SVG Version: 6.00 Build 0)  -->
<svg version="1.1" id="Ebene_1" xmlns="http://www.w3.org/2000/svg" xmlns:xlink="http://www.w3.org/1999/xlink" x="0px" y="0px"
	 viewBox="0 0 48 48" style="enable-background:new 0 0 48 48;" xml:space="preserve">
<style type="text/css">
	.st0{fill:#FFFFFF;}
</style>
<circle class="st0" cx="24" cy="24" r="24"/>
<path d="M25.6,22.4l-4.8-4.8l1.2-1.2l3.5,3.6l6.8-6.8l1.2,1.2L25.6,22.4z M27.1,36l-9.1-2.6v1.6h-6.2V23.6h9l7.4,2.8
	c0.5,0.2,0.9,0.5,1.3,0.9c0.4,0.5,0.5,1.1,0.5,1.9h3.3c0.8,0,1.5,0.3,2,0.9c0.5,0.5,0.8,1.4,0.8,2.3v0.8L27.1,36z M13.5,33.3h2.7v-8
	h-2.7V33.3z M27,34.2l7.4-2.3c-0.1-0.4-0.2-0.6-0.5-0.8c-0.2-0.2-0.4-0.2-0.6-0.2h-6c-0.5,0-1.1,0-1.6-0.1c-0.5-0.1-0.9-0.2-1.4-0.3
	l-2.3-0.7l0.6-1.7l2.1,0.7c0.5,0.2,0.9,0.2,1.4,0.3c0.5,0.1,1.1,0.1,2.1,0.1c0-0.2-0.1-0.5-0.2-0.7c-0.1-0.2-0.2-0.4-0.5-0.5l-7-2.7
	h-2.4v6.2L27,34.2z"/>
</svg>
