<?xml version="1.0" encoding="utf-8"?>
<!-- Generator: Adobe Illustrator 26.5.0, SVG Export Plug-In . SVG Version: 6.00 Build 0)  -->
<svg version="1.1" id="Ebene_1" xmlns="http://www.w3.org/2000/svg" xmlns:xlink="http://www.w3.org/1999/xlink" x="0px" y="0px"
	 viewBox="0 0 48 48" style="enable-background:new 0 0 48 48;" xml:space="preserve">
<style type="text/css">
	.st0{fill:#FFFFFF;}
</style>
<circle class="st0" cx="24" cy="24" r="24"/>
<path d="M16,28.9h13v1.8H16.7l-4.9,4.9V13.1c0-0.4,0.2-0.9,0.5-1.2c0.3-0.3,0.8-0.5,1.3-0.5h20.5c0.4,0,0.9,0.2,1.2,0.5
	c0.3,0.3,0.5,0.8,0.5,1.2v8.5h-1.8v-8.5H13.7v17.9L16,28.9z M13.7,28.9v2.3v-18V28.9z M32.7,36.7v-6.1h-1.8v-7.3h4.4l-1.7,5.1h2.6
	L32.7,36.7z"/>
</svg>
