<?xml version="1.0" encoding="utf-8"?>
<!-- Generator: Adobe Illustrator 26.5.0, SVG Export Plug-In . SVG Version: 6.00 Build 0)  -->
<svg version="1.1" id="Ebene_1" xmlns="http://www.w3.org/2000/svg" xmlns:xlink="http://www.w3.org/1999/xlink" x="0px" y="0px"
	 viewBox="0 0 48 48" style="enable-background:new 0 0 48 48;" xml:space="preserve">
<style type="text/css">
	.st0{fill:#FFFFFF;}
</style>
<circle class="st0" cx="24" cy="24" r="24"/>
<path d="M23.2,39.8c-1.8,0-3.4-0.3-5-0.8c-1.6-0.5-3.1-1.2-4.4-2.3l1.8-1.8c1.2,0.8,2.4,1.4,3.7,1.8c1.3,0.4,2.7,0.6,4,0.6
	c3.7,0,6.9-1.3,9.5-3.9c2.6-2.6,3.9-5.8,3.9-9.5s-1.3-6.9-3.9-9.5s-5.8-3.9-9.5-3.9s-6.9,1.3-9.5,3.9s-3.9,5.8-3.9,9.5H7.4
	c0-2.2,0.4-4.3,1.2-6.1c0.8-1.9,2-3.5,3.4-5s3.1-2.6,5.1-3.4c2-0.8,3.9-1.2,6.1-1.2s4.3,0.4,6.1,1.2c1.9,0.8,3.5,2,5,3.4
	s2.6,3.1,3.4,5s1.2,3.9,1.2,6.1c0,2.1-0.4,4.2-1.2,6.1c-0.8,2-2,3.5-3.4,5.1c-1.4,1.4-3.1,2.6-5,3.4C27.4,39.3,25.3,39.8,23.2,39.8z
	 M10.1,32.7l6.5-6.5l5,4.3l8.7-8.7v5.2h2.4v-9h-9.1v2.4h5.2l-7.3,7.3l-5-4.3L9,30.8c0.2,0.4,0.4,0.7,0.4,1
	C9.6,32.1,9.9,32.4,10.1,32.7z"/>
</svg>
